
      <svg data-logo="logo" xmlns="http://www.w3.org/2000/svg" viewBox="0 0 257 43">
        <g id="logogram" transform="translate(0, 1) rotate(0)"><path d="M45.8693 4.61295C46.667 3.72652 47.5535 2.99522 48.4621 2.41904C50.0576 1.42181 51.7418 0.889954 53.4704 0.889954V15.3609C52.2072 10.9731 49.4814 7.20574 45.8693 4.61295ZM67.3873 40.89H16.1296C7.7086 40.89 0.905273 34.0645 0.905273 25.6656C0.905273 17.6213 7.15458 11.0174 15.0659 10.4634V0.889954C16.8388 0.889954 18.5895 1.39965 20.2294 2.41904C21.138 2.97306 22.0244 3.70436 22.8222 4.54646C26.0798 2.26391 30.0244 0.934275 34.3014 0.934275C34.3014 10.1753 30.9773 20.9232 20.1629 20.9454H34.1906C33.7917 19.1503 32.1518 17.8207 30.2017 17.7985H38.3568C36.4067 17.7985 34.7668 19.1503 34.3679 20.9675H47.4427C50.0576 20.9675 52.6504 21.4772 55.0881 22.4966C57.5036 23.4938 59.7197 24.9786 61.559 26.8179C63.4205 28.6794 64.8831 30.8733 65.8803 33.2888C66.8776 35.6822 67.3873 38.275 67.3873 40.89ZM23.6864 10.7293C24.0188 11.5936 24.9053 12.5686 26.1463 13.2778C27.3873 13.9869 28.6726 14.275 29.5812 14.142C29.2488 13.2778 28.3623 12.3027 27.1213 11.5936C25.8803 10.8844 24.595 10.5963 23.6864 10.7293ZM42.3457 13.2778C41.1047 13.9869 39.8194 14.275 38.9108 14.142C39.2432 13.2778 40.1297 12.3027 41.3706 11.5936C42.6116 10.8844 43.897 10.5963 44.8055 10.7293C44.4953 11.5936 43.5867 12.5686 42.3457 13.2778Z" fill="#A505F0"/></g>
        <g id="logotype" transform="translate(74, 7.5)"><path fill="#fafafa" d="M17.69 28L7.40 28L7.40 27.27L10.62 26.74L10.62 1.26L7.40 0.77L7.40-0.00L28.47-0.00L28.47 8.01L27.53 8.01L24.83 0.87L14.47 0.87L14.47 14.00L20.39 14.00L22.45 8.92L23.40 8.92L23.40 19.98L22.45 19.98L20.39 14.84L14.47 14.84L14.47 26.74L17.69 27.27L17.69 28ZM38.80 28L30.22 28L30.22 27.30L32.85 26.95L32.85 1.05L30.22 0.70L30.22-0.00L36.35-0.00L36.35 26.95L38.80 27.30L38.80 28ZM44.22 5.81Q43.24 5.81 42.54 5.13Q41.84 4.44 41.84 3.46L41.84 3.46Q41.84 2.48 42.52 1.82Q43.20 1.15 44.22 1.15L44.22 1.15Q45.16 1.15 45.83 1.82Q46.50 2.48 46.50 3.46L46.50 3.46Q46.50 4.44 45.83 5.13Q45.16 5.81 44.22 5.81L44.22 5.81ZM48.91 28L40.51 28L40.51 27.30L42.96 26.95L42.96 10.95L40.51 10.60L40.51 9.90L46.46 9.90L46.46 26.95L48.91 27.30L48.91 28ZM50.59 28L50.59 27.30L53.04 26.95L53.04 10.92L50.59 10.57L50.59 9.87L56.54 9.87L56.54 13.09Q57.80 11.44 59.39 10.50Q60.99 9.55 62.84 9.55L62.84 9.55Q64.98 9.55 66.32 10.48Q67.67 11.41 68.02 13.26L68.02 13.26Q69.28 11.55 70.89 10.55Q72.50 9.55 74.43 9.55L74.43 9.55Q76.91 9.55 78.29 10.80Q79.68 12.04 79.68 14.56L79.68 14.56L79.68 26.95L82.13 27.30L82.13 28L74.08 28L74.08 27.30L76.18 26.95L76.18 14.63Q76.18 12.77 75.51 11.79Q74.84 10.81 73.34 10.81L73.34 10.81Q71.91 10.81 70.56 11.79Q69.21 12.77 68.13 14.31L68.13 14.31L68.13 26.95L70.23 27.30L70.23 28L62.49 28L62.49 27.30L64.59 26.95L64.59 14.63Q64.59 12.77 63.93 11.79Q63.26 10.81 61.76 10.81L61.76 10.81Q60.32 10.81 58.97 11.79Q57.63 12.77 56.54 14.31L56.54 14.31L56.54 26.95L58.64 27.30L58.64 28L50.59 28ZM92.70 19.00L85.03 19.00L85.03 17.85L92.70 17.85L92.70 19.00ZM106.66 28L96.37 28L96.37 27.27L99.59 26.74L99.59 1.26L96.37 0.77L96.37-0.00L117.44-0.00L117.44 8.01L116.50 8.01L113.80 0.87L103.44 0.87L103.44 14.00L109.36 14.00L111.42 8.92L112.37 8.92L112.37 19.98L111.42 19.98L109.36 14.84L103.44 14.84L103.44 26.74L106.66 27.27L106.66 28ZM127.77 28L119.19 28L119.19 27.30L121.82 26.95L121.82 1.05L119.19 0.70L119.19-0.00L125.32-0.00L125.32 26.95L127.77 27.30L127.77 28ZM135.22 28.35Q132.98 28.35 131.54 27.18Q130.11 26.00 130.11 23.70L130.11 23.70Q130.11 20.41 132.88 19.02Q135.64 17.64 139.28 17.64L139.28 17.64L141.63 17.64L141.63 14.94Q141.63 13.12 141.22 12.13Q140.82 11.13 139.98 10.73Q139.14 10.32 137.71 10.32L137.71 10.32Q136.06 10.32 135.25 10.97Q134.45 11.62 134.45 12.70L134.45 12.70Q134.45 13.72 135.43 14.03L135.43 14.03Q135.43 14.91 134.76 15.57Q134.10 16.24 133.19 16.24L133.19 16.24Q132.21 16.24 131.62 15.70Q131.02 15.15 131.02 14.03L131.02 14.03Q131.02 12.00 133.05 10.78Q135.08 9.55 138.13 9.55L138.13 9.55Q145.13 9.55 145.13 15.64L145.13 15.64L145.13 25.66Q145.13 26.43 145.46 26.83Q145.79 27.23 146.42 27.23L146.42 27.23Q147.01 27.23 147.37 26.83Q147.72 26.43 147.72 25.73L147.72 25.73L148.45 25.73Q148.45 26.95 147.66 27.65Q146.88 28.35 145.47 28.35L145.47 28.35Q143.87 28.35 142.76 27.42Q141.66 26.50 141.63 24.54L141.63 24.54Q140.78 26.32 139.05 27.34Q137.32 28.35 135.22 28.35L135.22 28.35ZM137.15 26.81Q138.09 26.81 139.09 26.25Q140.09 25.69 140.78 24.62Q141.49 23.55 141.63 22.05L141.63 22.05L141.63 18.41L139.28 18.41Q136.41 18.41 134.99 19.69Q133.57 20.96 133.57 23.27L133.57 23.27Q133.57 25.20 134.49 26.00Q135.40 26.81 137.15 26.81L137.15 26.81ZM149.29 28L149.29 27.30L151.74 26.95L151.74 10.92L149.29 10.57L149.29 9.87L155.24 9.87L155.24 12.56Q157.44 9.55 160.21 9.55L160.21 9.55Q161.54 9.55 162.56 10.24Q163.57 10.92 163.57 12.18L163.57 12.18Q163.57 13.09 162.97 13.70Q162.38 14.31 161.40 14.31L161.40 14.31Q160.28 14.31 159.58 13.44L159.58 13.44Q159.97 12.95 159.97 12.39L159.97 12.39Q159.97 11.79 159.56 11.43Q159.16 11.06 158.50 11.06L158.50 11.06Q157.76 11.06 156.99 11.74Q156.22 12.42 155.24 13.86L155.24 13.86L155.24 26.95L158.04 27.30L158.04 28L149.29 28ZM174.21 28.35Q171.62 28.35 169.52 27.18Q167.42 26.00 166.19 23.87Q164.97 21.73 164.97 18.93L164.97 18.93Q164.97 16.13 166.18 14.02Q167.38 11.90 169.43 10.73Q171.48 9.55 174 9.55L174 9.55Q176.21 9.55 177.96 10.53Q179.71 11.51 180.69 13.25Q181.67 14.98 181.70 17.22L181.70 17.22L168.82 17.22L168.82 20.68Q168.82 23.77 170.20 25.67Q171.59 27.58 174.21 27.58L174.21 27.58Q176.63 27.58 178.48 26.21Q180.34 24.85 180.75 22.68L180.75 22.68L181.56 22.68Q181.07 25.27 179.08 26.81Q177.08 28.35 174.21 28.35L174.21 28.35ZM168.86 16.34L177.85 16.34Q177.85 13.30 176.91 11.81Q175.96 10.32 173.97 10.32L173.97 10.32Q171.62 10.32 170.33 11.97Q169.03 13.61 168.86 16.34L168.86 16.34Z"/></g>
        
      </svg>
    